<?xml version="1.0" standalone="no"?>
<!DOCTYPE svg PUBLIC "-//W3C//DTD SVG 20010904//EN"
 "http://www.w3.org/TR/2001/REC-SVG-20010904/DTD/svg10.dtd">
<svg version="1.0" xmlns="http://www.w3.org/2000/svg"
 width="260.000000pt" height="260.000000pt" viewBox="0 0 260.000000 260.000000"
 preserveAspectRatio="xMidYMid meet">
<metadata>
Created by potrace 1.11, written by Peter Selinger 2001-2013
</metadata>
<g transform="translate(0.000000,260.000000) scale(0.100000,-0.100000)"
fill="#000000" stroke="none">
<path d="M371 2388 c-66 -15 -145 -97 -160 -167 -16 -73 -16 -1769 0 -1842 9
-43 21 -63 63 -105 42 -42 62 -54 105 -63 73 -16 1769 -16 1842 0 43 9 63 21
105 63 42 42 54 62 63 105 16 73 16 1769 0 1842 -9 43 -21 63 -63 105 -42 42
-62 54 -105 63 -67 14 -1785 14 -1850 -1z m967 -352 c7 -4 12 -34 12 -75 l0
-69 38 14 c97 35 184 -1 237 -97 62 -114 24 -248 -89 -306 -39 -20 -137 -29
-164 -14 -14 7 -23 8 -27 1 -9 -14 -58 -12 -77 3 -12 9 -17 40 -21 142 -6 123
5 384 16 402 6 10 59 9 75 -1z m-213 -20 c24 -24 25 -44 3 -72 -16 -22 -49
-23 -69 -3 -23 23 -24 56 -2 81 22 24 39 23 68 -6z m935 -116 c0 -11 -7 -37
-16 -58 -9 -20 -32 -75 -51 -122 -19 -47 -57 -137 -84 -201 -42 -101 -55 -138
-58 -171 -1 -9 -57 -10 -88 -2 -32 9 -29 35 16 128 l38 79 -42 111 c-23 61
-53 139 -67 174 -14 34 -23 64 -19 66 3 2 23 4 44 4 35 1 39 -2 53 -36 74
-180 89 -212 96 -195 4 10 20 50 37 88 16 39 32 84 36 100 12 54 13 55 60 55
39 0 45 -3 45 -20z m-1209 -18 c35 -14 97 -88 110 -132 6 -19 9 -49 7 -65 l-3
-30 -157 4 c-142 3 -158 2 -158 -13 0 -43 73 -106 122 -106 35 0 91 40 98 70
6 21 11 25 41 22 18 -1 37 -6 42 -11 15 -15 -19 -75 -58 -105 -33 -25 -49 -30
-114 -34 -73 -4 -78 -3 -125 29 -66 45 -85 74 -93 137 -5 43 -1 65 21 122 17
44 38 77 54 89 49 35 156 46 213 23z m294 -59 c-2 -32 -7 -120 -9 -196 -5
-143 -10 -165 -29 -148 -7 5 -23 11 -37 13 -28 3 -27 -7 -20 223 2 66 1 130
-4 143 -7 21 -5 22 48 22 l56 0 -5 -57z m-20 -978 l0 -270 -35 0 c-29 0 -36 4
-38 22 -3 22 -4 22 -29 6 -32 -22 -172 -30 -210 -13 -16 7 -44 30 -63 53 -33
38 -35 44 -34 111 1 111 60 199 150 224 57 17 69 15 125 -13 l49 -24 1 32 c0
43 9 119 14 135 3 8 17 12 37 10 l33 -3 0 -270z m356 127 c35 -14 97 -88 110
-132 6 -19 9 -49 7 -65 l-3 -30 -157 4 c-142 3 -158 2 -158 -13 0 -43 73 -106
122 -106 35 0 91 40 98 70 6 21 11 25 41 22 18 -1 37 -6 42 -11 15 -15 -19
-75 -58 -105 -33 -25 -49 -30 -114 -34 -73 -4 -78 -3 -125 29 -66 45 -85 74
-93 137 -5 43 -1 65 21 122 17 44 38 77 54 89 49 35 156 46 213 23z m279 -69
c15 -43 36 -97 46 -120 l19 -43 28 73 c16 39 38 94 50 120 l21 48 50 -3 c46
-3 51 -5 49 -26 -2 -12 -12 -42 -24 -65 -17 -35 -72 -163 -132 -310 -6 -15
-18 -26 -25 -25 -20 4 -132 211 -173 317 -7 19 -26 50 -42 68 l-28 32 23 5
c27 6 101 12 107 9 2 -2 16 -38 31 -80z m-1099 -306 c-9 -22 -17 -27 -46 -27
-28 0 -38 5 -44 23 -12 30 3 55 36 59 41 6 67 -21 54 -55z"/>
<path d="M1397 1800 c-20 -17 -41 -47 -47 -66 -34 -101 96 -216 178 -158 31
22 52 66 52 112 0 83 -32 122 -111 137 -31 6 -41 3 -72 -25z"/>
<path d="M681 1784 c-12 -15 -21 -31 -21 -35 0 -5 45 -9 100 -9 55 0 100 4
100 8 0 18 -37 41 -80 51 -66 15 -76 14 -99 -15z"/>
<path d="M860 878 c-45 -31 -60 -61 -60 -125 0 -48 2 -53 36 -73 76 -48 177
-2 194 88 8 47 -3 76 -40 104 -42 31 -90 33 -130 6z"/>
<path d="M1311 874 c-12 -15 -21 -31 -21 -35 0 -5 45 -9 100 -9 55 0 100 4
100 8 0 18 -37 41 -80 51 -66 15 -76 14 -99 -15z"/>
</g>
</svg>
